<svg width="25" height="24" viewBox="0 0 25 24" fill="none" xmlns="http://www.w3.org/2000/svg">
<path d="M11.8 2.18829L5.8 4.43829C5.02 4.73829 4.5 5.47829 4.5 6.31829V11.0283C4.5 16.0783 7.91 20.7883 12.5 21.9383C17.09 20.7883 20.5 16.0783 20.5 11.0283V6.31829C20.5 5.48829 19.98 4.73829 19.2 4.44829L13.2 2.19829C12.75 2.01829 12.25 2.01829 11.8 2.18829ZM10.73 14.7583L8.61 12.6383C8.22 12.2483 8.22 11.6183 8.61 11.2283C9 10.8383 9.63 10.8383 10.02 11.2283L11.43 12.6383L14.97 9.09829C15.36 8.70829 15.99 8.70829 16.38 9.09829C16.77 9.48829 16.77 10.1183 16.38 10.5083L12.14 14.7483C11.76 15.1483 11.12 15.1483 10.73 14.7583Z" fill="#1F1F1F"/>
</svg>
